<svg width="64" height="48" viewBox="0 0 64 48" fill="none" xmlns="http://www.w3.org/2000/svg">
<path d="M63.6703 16.0063L47.5922 0.321614C47.5857 0.315348 47.5788 0.310127 47.5722 0.304175C47.552 0.28531 47.5317 0.266619 47.51 0.249146C47.4959 0.237973 47.4811 0.228157 47.4666 0.217611C47.4516 0.206716 47.437 0.19537 47.4213 0.185102C47.4053 0.174695 47.3886 0.165506 47.3721 0.156003C47.357 0.147128 47.3421 0.137903 47.3266 0.129654C47.3104 0.121405 47.2939 0.114201 47.2774 0.106683C47.2604 0.0987119 47.2438 0.0905668 47.2264 0.0835359C47.2109 0.0772359 47.1952 0.0723625 47.1795 0.0668283C47.1605 0.0600758 47.1417 0.0530452 47.122 0.0472325C47.1071 0.0427772 47.0919 0.0395744 47.0768 0.0358848C47.0564 0.0306987 47.0361 0.0251653 47.0152 0.0211625C46.9987 0.0179603 46.9819 0.0162548 46.9654 0.0138184C46.9456 0.0108946 46.9261 0.0073789 46.9062 0.00553415C46.879 0.00274961 46.8518 0.00215725 46.8249 0.0013915C46.8151 0.00121747 46.8057 0 46.7959 0H17.2042C17.1914 0 17.1788 0.00153075 17.1661 0.00184401C17.1422 0.00260975 17.1182 0.00306295 17.0944 0.005395C17.0728 0.00755301 17.0517 0.011207 17.0305 0.014444C17.0154 0.0167413 17.0005 0.0182736 16.9856 0.0211625C16.9633 0.0254786 16.9416 0.0312904 16.9198 0.0367899C16.9061 0.0401661 16.8922 0.0430553 16.8788 0.0470232C16.8577 0.0533233 16.8373 0.0608068 16.8169 0.0681858C16.8028 0.0732676 16.7886 0.077549 16.7746 0.0832225C16.7555 0.0910192 16.737 0.0998944 16.7183 0.108805C16.7037 0.115557 16.689 0.121823 16.6746 0.129168C16.6565 0.13867 16.6392 0.149251 16.6218 0.159659C16.6078 0.167908 16.5936 0.175599 16.5801 0.184475C16.5607 0.19704 16.5425 0.210824 16.5241 0.224469C16.5131 0.232579 16.5018 0.239922 16.4912 0.248519C16.4621 0.271805 16.4343 0.29617 16.4078 0.322066L0.329646 16.0063C0.322903 16.0129 0.317051 16.0203 0.310486 16.027C0.291647 16.0463 0.272915 16.0656 0.255504 16.0863C0.243087 16.101 0.232276 16.1165 0.220787 16.1315C0.210404 16.1453 0.199558 16.1585 0.189853 16.1726C0.178221 16.1896 0.168017 16.2072 0.157491 16.2247C0.149463 16.238 0.140686 16.251 0.133122 16.2648C0.123702 16.2823 0.115531 16.3002 0.106897 16.318C0.0998323 16.3327 0.0923038 16.3472 0.0858458 16.3622C0.0847397 16.3647 0.0833482 16.3672 0.0822421 16.3696C0.0762836 16.3845 0.0717165 16.3996 0.0662218 16.4146C0.0602633 16.4309 0.0538052 16.447 0.0486317 16.4637C0.043137 16.4814 0.0390338 16.4994 0.0345024 16.5173C0.0302565 16.5342 0.0254041 16.5507 0.0218004 16.5679C0.0175545 16.5889 0.0150569 16.61 0.0119171 16.631C0.010026 16.6454 0.00702893 16.6596 0.00563742 16.6742C0.00185535 16.7104 0 16.7467 0 16.783C0 16.8193 0.00185535 16.8556 0.00563742 16.8918C0.00706461 16.9064 0.0100617 16.9206 0.0120598 16.9351C0.0150569 16.9562 0.0175902 16.9772 0.0218004 16.9981C0.0254041 17.0153 0.0302565 17.0318 0.0345024 17.0488C0.0390695 17.0668 0.0431726 17.0846 0.0486317 17.1023C0.0538052 17.119 0.0602276 17.1351 0.0662218 17.1516C0.0726799 17.169 0.07846 17.1866 0.0858458 17.2038C0.0923038 17.2188 0.0998323 17.2334 0.106897 17.248C0.115531 17.266 0.123702 17.2837 0.133122 17.3012C0.14065 17.315 0.149463 17.328 0.157491 17.3413C0.168017 17.3588 0.178221 17.3764 0.189853 17.3934C0.199558 17.4075 0.21044 17.4207 0.220787 17.4345C0.23224 17.4495 0.243087 17.465 0.255504 17.4797C0.272915 17.5004 0.291647 17.5197 0.310486 17.539C0.317051 17.5457 0.322903 17.5531 0.329646 17.5597L31.204 47.6784C31.4239 47.8928 31.7121 48 32.0001 48C32.2882 48 32.5764 47.8928 32.7963 47.6784L63.6703 17.5597C64.1099 17.1306 64.1099 16.4353 63.6703 16.0063ZM17.6707 2.19662H26.0368L16.6093 15.6847H3.84379L17.6707 2.19662ZM35.2379 2.19662L44.6657 15.6847H19.3345L28.762 2.19662H35.2379ZM46.3295 2.19662L60.156 15.6847H47.3909L37.9631 2.19662H46.3295ZM44.9789 17.8813L32.0001 43.3486L19.0213 17.8813H44.9789ZM16.5066 17.8813L29.0259 42.447L3.84394 17.8813H16.5066ZM47.4937 17.8813H60.156L34.9743 42.447L47.4937 17.8813Z" fill="#1F9DF8"/>
</svg>
