<svg width="157" height="162" viewBox="0 0 157 162" fill="none" xmlns="http://www.w3.org/2000/svg">
<path d="M78.8195 162C121.997 162 157 125.806 157 81.1574C157 36.5092 121.997 0.314758 78.8195 0.314758C35.6415 0.314758 0.638916 36.5092 0.638916 81.1574C0.638916 125.806 35.6415 162 78.8195 162Z" fill="#1F9DF8"/>
<path d="M125.532 87.6624V120.992H106.844V89.8961C106.844 82.0883 104.146 76.7562 97.3803 76.7562C92.2168 76.7562 89.1494 80.346 87.7948 83.8219C87.3028 85.0641 87.176 86.7891 87.176 88.5314V120.991H68.4873C68.4873 120.991 68.7381 68.3244 68.4873 62.8727H87.1774V71.1086C87.1398 71.1734 87.0868 71.2368 87.0534 71.2988H87.1774V71.1086C89.6609 67.1571 94.0899 61.508 104.02 61.508C116.314 61.508 125.532 69.8145 125.532 87.6624ZM48.9373 34.8578C42.5446 34.8578 38.3623 39.1969 38.3623 44.8979C38.3623 50.4778 42.4234 54.9423 48.692 54.9423H48.8132C55.3313 54.9423 59.384 50.4778 59.384 44.8979C59.26 39.1969 55.3313 34.8578 48.9373 34.8578ZM39.473 120.992H58.1548V62.8727H39.473V120.992Z" fill="#F1F2F2"/>
</svg>
