<svg width="395" height="395" viewBox="0 0 395 395" fill="none" xmlns="http://www.w3.org/2000/svg">
<path d="M394.804 197.402C394.804 88.38 306.424 0 197.402 0C88.38 0 0 88.38 0 197.402C0 306.424 88.38 394.804 197.402 394.804C306.424 394.804 394.804 306.424 394.804 197.402Z" fill="#1F9DF8"/>
<path d="M164.547 197.908C164.547 179.722 179.282 164.975 197.462 164.975C215.643 164.975 230.385 179.722 230.385 197.908C230.385 216.093 215.643 230.84 197.462 230.84C179.282 230.84 164.547 216.093 164.547 197.908ZM146.75 197.908C146.75 225.924 169.454 248.634 197.462 248.634C225.471 248.634 248.174 225.924 248.174 197.908C248.174 169.891 225.471 147.181 197.462 147.181C169.454 147.181 146.75 169.891 146.75 197.908ZM238.331 145.169C238.33 147.514 239.024 149.806 240.325 151.756C241.627 153.706 243.477 155.226 245.642 156.124C247.807 157.023 250.191 157.259 252.49 156.802C254.789 156.345 256.901 155.217 258.559 153.56C260.217 151.903 261.346 149.791 261.805 147.492C262.263 145.192 262.029 142.808 261.133 140.642C260.237 138.475 258.719 136.624 256.77 135.32C254.822 134.017 252.531 133.32 250.187 133.319H250.182C247.04 133.321 244.027 134.57 241.805 136.792C239.583 139.013 238.334 142.027 238.331 145.169ZM157.563 278.319C147.935 277.881 142.701 276.276 139.223 274.921C134.612 273.125 131.322 270.987 127.863 267.532C124.404 264.077 122.263 260.789 120.476 256.176C119.12 252.699 117.516 247.462 117.079 237.831C116.6 227.418 116.504 224.29 116.504 197.908C116.504 171.527 116.607 168.408 117.079 157.986C117.517 148.354 119.133 143.128 120.476 139.64C122.271 135.028 124.409 131.737 127.863 128.277C131.317 124.817 134.604 122.675 139.223 120.888C142.699 119.532 147.935 117.927 157.563 117.49C167.973 117.01 171.1 116.915 197.462 116.915C223.824 116.915 226.955 117.019 237.373 117.49C247.002 117.928 252.227 119.544 255.713 120.888C260.324 122.675 263.614 124.822 267.073 128.277C270.532 131.733 272.665 135.028 274.461 139.64C275.816 143.118 277.42 148.354 277.858 157.986C278.337 168.408 278.432 171.527 278.432 197.908C278.432 224.29 278.337 227.409 277.858 237.831C277.419 247.462 275.808 252.697 274.461 256.176C272.665 260.789 270.528 264.08 267.073 267.532C263.619 270.984 260.324 273.125 255.713 274.921C252.237 276.277 247.002 277.881 237.373 278.319C226.963 278.798 223.836 278.894 197.462 278.894C171.089 278.894 167.97 278.798 157.563 278.319ZM156.746 99.7172C146.232 100.196 139.047 101.864 132.774 104.305C126.276 106.828 120.775 110.211 115.279 115.7C109.782 121.19 106.409 126.701 103.887 133.2C101.446 139.48 99.779 146.662 99.3 157.179C98.8136 167.712 98.7019 171.08 98.7019 197.908C98.7019 224.735 98.8136 228.103 99.3 238.636C99.779 249.153 101.446 256.335 103.887 262.615C106.409 269.111 109.783 274.628 115.279 280.115C120.774 285.602 126.276 288.981 132.774 291.51C139.059 293.952 146.232 295.619 156.746 296.098C167.281 296.577 170.642 296.696 197.462 296.696C224.283 296.696 227.649 296.585 238.179 296.098C248.694 295.619 255.873 293.952 262.151 291.51C268.645 288.981 274.149 285.604 279.646 280.115C285.142 274.626 288.509 269.111 291.037 262.615C293.479 256.335 295.154 249.153 295.625 238.636C296.103 228.095 296.215 224.735 296.215 197.908C296.215 171.08 296.103 167.712 295.625 157.179C295.146 146.662 293.479 139.476 291.037 133.2C288.509 126.704 285.134 121.199 279.646 115.7C274.158 110.202 268.645 106.828 262.159 104.305C255.873 101.864 248.693 100.188 238.187 99.7172C227.657 99.2382 224.29 99.1187 197.47 99.1187C170.65 99.1187 167.281 99.23 156.746 99.7172Z" fill="#F1F2F2"/>
</svg>
