<svg width="395" height="395" viewBox="0 0 395 395" fill="none" xmlns="http://www.w3.org/2000/svg">
<path d="M197.402 0C88.3791 0 0 88.3791 0 197.402C0 306.425 88.3791 394.804 197.402 394.804C306.425 394.804 394.804 306.425 394.804 197.402C394.804 88.3791 306.425 0 197.402 0Z" fill="#1F9DF8"/>
<path d="M293.455 113.554L258.197 291.319C258.197 291.319 253.266 303.647 239.706 297.73L158.342 235.351L128.756 221.052L78.9525 204.285C78.9525 204.285 71.3093 201.574 70.5691 195.656C69.8304 189.739 79.1993 186.534 79.1993 186.534L277.181 108.869C277.181 108.869 293.455 101.719 293.455 113.554Z" fill="#F1F2F2"/>
<path d="M152.089 289.323C152.089 289.323 149.714 289.101 146.754 279.73C143.796 270.362 128.757 221.051 128.757 221.051L248.335 145.113C248.335 145.113 255.239 140.921 254.992 145.113C254.992 145.113 256.225 145.852 252.526 149.303C248.828 152.756 158.589 233.871 158.589 233.871" fill="#D2E5F1"/>
<path d="M189.539 259.268L157.357 288.61C157.357 288.61 154.841 290.519 152.088 289.323L158.251 234.82" fill="#B5CFE4"/>
</svg>
