<svg width="166" height="151" viewBox="0 0 166 151" fill="none" xmlns="http://www.w3.org/2000/svg">
<path d="M166 75.5C166 33.8025 128.84 0 83 0C37.1604 0 0 33.8025 0 75.5C0 117.198 37.1604 151 83 151C128.84 151 166 117.198 166 75.5Z" fill="#1F9DF8"/>
<path d="M103.309 80.4151L105.674 66.7456H91.1048V57.8604C91.1048 54.1226 93.1387 50.4702 99.643 50.4702H106.36V38.8297C102.448 38.2623 98.4957 37.9553 94.5342 37.9113C82.5429 37.9113 74.7141 44.4684 74.7141 56.3225V66.7456H61.4219V80.4151H74.7141V113.478H91.1048V80.4151H103.309Z" fill="#F1F2F2"/>
</svg>
