<svg width="41" height="36" viewBox="0 0 41 36" fill="none" xmlns="http://www.w3.org/2000/svg">
<path d="M29.4924 1H11.5077C5.70449 1 1 5.06651 1 10.0827V25.6284C1 30.6446 5.70449 34.7111 11.5077 34.7111H29.4923C35.2955 34.7111 40 30.6446 40 25.6284V10.0827C40.0001 5.06651 35.2956 1 29.4924 1Z" stroke="black" stroke-width="2" stroke-miterlimit="10"/>
<path d="M20.5 25.6C25.1944 25.6 29 22.1327 29 17.8556C29 13.5784 25.1944 10.1111 20.5 10.1111C15.8056 10.1111 12 13.5784 12 17.8556C12 22.1327 15.8056 25.6 20.5 25.6Z" stroke="black" stroke-width="2" stroke-miterlimit="10"/>
<path d="M31 8.28889C32.1046 8.28889 33 7.47305 33 6.46667C33 5.46028 32.1046 4.64444 31 4.64444C29.8954 4.64444 29 5.46028 29 6.46667C29 7.47305 29.8954 8.28889 31 8.28889Z" fill="black"/>
</svg>
