<svg width="42" height="45" viewBox="0 0 42 45" fill="none" xmlns="http://www.w3.org/2000/svg">
<path d="M37.5122 6.11149C37.241 5.86042 36.9108 5.69369 36.5575 5.62939C36.2041 5.56509 35.8411 5.60566 35.5077 5.74671L5.2288 18.4917C4.83298 18.6583 4.49816 18.9578 4.27443 19.3452C4.0507 19.7327 3.9501 20.1874 3.98768 20.6413C4.02526 21.0951 4.199 21.5238 4.48291 21.863C4.76681 22.2022 5.14561 22.4338 5.56262 22.5232L13.7812 24.2844V35.1535C13.7771 35.5717 13.8909 35.9814 14.1078 36.3291C14.3246 36.6768 14.6344 36.9463 14.9965 37.1022C15.2391 37.211 15.4994 37.2675 15.7624 37.2682C16.0195 37.2673 16.2738 37.2118 16.5106 37.1048C16.7474 36.9978 16.9621 36.8415 17.1421 36.6449L21.8336 31.6182L28.756 38.1451C29.1127 38.4845 29.5731 38.6722 30.0501 38.6727C30.2575 38.6725 30.4636 38.6374 30.6609 38.5689C30.9863 38.4583 31.2789 38.2583 31.5096 37.9888C31.7402 37.7192 31.9009 37.3896 31.9756 37.0327L38.1466 8.18121C38.2271 7.80704 38.2106 7.41639 38.0988 7.05156C37.987 6.68673 37.7841 6.36164 37.5122 6.11149ZM5.29505 20.517C5.27873 20.3651 5.31069 20.2117 5.38577 20.0817C5.46086 19.9517 5.57467 19.8526 5.70882 19.8005L33.4641 8.11766L14.2852 22.9584L5.82 21.1444C5.67939 21.1183 5.55108 21.0422 5.45582 20.9284C5.36056 20.8145 5.30392 20.6696 5.29505 20.517ZM16.2139 35.6506C16.1222 35.749 16.0052 35.8159 15.878 35.8431C15.7507 35.8702 15.6187 35.8563 15.4988 35.8031C15.3789 35.7499 15.2764 35.6597 15.2043 35.5441C15.1322 35.4285 15.0937 35.2926 15.0937 35.1535V25.2634L20.8464 30.6874L16.2139 35.6506ZM36.8672 7.86707L30.6962 36.7185C30.6708 36.8373 30.6171 36.9469 30.5402 37.0366C30.4634 37.1264 30.3661 37.1933 30.2579 37.2306C30.1497 37.268 30.0343 37.2746 29.923 37.2499C29.8117 37.2251 29.7084 37.1698 29.623 37.0893L15.4883 23.7622L36.7612 7.3012C36.8171 7.38106 36.8557 7.47334 36.8741 7.57125C36.8924 7.66917 36.8901 7.77025 36.8672 7.86707Z" fill="black"/>
</svg>
